<?xml version="1.0" encoding="UTF-8"?>
<svg version="1.1" xmlns="http://www.w3.org/2000/svg" width="1185" height="778">
<path d="M0 0 C9.95228238 3.71433396 17.92789239 10.38910059 25.83984375 17.27734375 C28.50758771 19.59952087 31.26606409 21.77124683 34.0625 23.9375 C46.8922079 34.38643736 59.10967326 46.72204166 69 60 C69.84844384 61.09675237 70.69743978 62.19307777 71.546875 63.2890625 C93.60383951 92.14853186 109.97647748 127.1094082 110.203125 164.05859375 C110.20882507 164.80601334 110.21452515 165.55343292 110.22039795 166.32350159 C110.2297838 167.89916601 110.23635616 169.4748495 110.24023438 171.05053711 C110.24984904 173.40060082 110.28089534 175.74975341 110.3125 178.09960938 C110.52839038 209.01576093 99.41198117 238.2929017 81 263 C80.56719727 263.58539551 80.13439453 264.17079102 79.68847656 264.77392578 C73.02372641 273.70975405 65.70587919 281.95490382 58 290 C56.93652344 291.12535156 56.93652344 291.12535156 55.8515625 292.2734375 C50.62710742 297.66848704 44.89232583 302.35839559 39 307 C38.3901123 307.48629883 37.78022461 307.97259766 37.15185547 308.47363281 C12.4483698 328.12120787 -14.87220615 342.98090891 -44 355 C-45.20865723 355.50063965 -46.41731445 356.0012793 -47.66259766 356.51708984 C-66.11924478 364.11734298 -84.63240561 370.14557315 -104 375 C-104 378.60225252 -103.00523225 380.47606633 -101.46484375 383.73046875 C-100.91038574 384.90963867 -100.35592773 386.08880859 -99.78466797 387.30371094 C-99.1689979 388.5983323 -98.55327369 389.89292792 -97.9375 391.1875 C-97.30296685 392.53260353 -96.66902521 393.87798623 -96.03564453 395.22363281 C-94.70380368 398.0512968 -93.36895636 400.87751177 -92.03173828 403.70263672 C-89.11201857 409.8736603 -86.21518806 416.05540549 -83.31838989 422.23721313 C-82.36899232 424.2628178 -81.41879754 426.28804709 -80.46850586 428.31323242 C-76.12919381 437.56496529 -71.834777 446.83668658 -67.56469727 456.12060547 C-63.20385853 465.58939668 -58.76954781 475.02300734 -54.33361816 484.45675659 C-50.21160532 493.22725899 -46.1483674 502.01928912 -42.22338867 510.88012695 C-40.26602046 515.2731659 -38.22929152 519.61646991 -36.1171875 523.9375 C-35.62057617 524.95642334 -35.12396484 525.97534668 -34.61230469 527.02514648 C-33.65536669 528.97939233 -32.69049297 530.92978266 -31.71582031 532.87524414 C-26.7039031 543.11112122 -23.40970523 553.49637241 -25 565 C-26.98623856 570.14950739 -30.29963338 574.09024924 -35 577 C-39.68103736 578.56528933 -43.74840459 579.25045517 -48.67359334 579.25299966 C-50.64351065 579.26127889 -50.64351065 579.26127889 -52.65322426 579.26972538 C-54.10160228 579.26575011 -55.5499798 579.2615912 -56.99835682 579.25726891 C-58.55031395 579.25996296 -60.10226977 579.26353117 -61.65422311 579.26789337 C-65.93074591 579.27735957 -70.20718361 579.27434807 -74.48371061 579.26933783 C-79.13182948 579.26607478 -83.77993002 579.27435075 -88.42804307 579.28115618 C-96.57848616 579.29147195 -104.7289055 579.29429724 -112.87935448 579.29224396 C-124.99934684 579.28919809 -137.11931285 579.29750874 -149.2393001 579.30799321 C-172.14323311 579.32735239 -195.04715718 579.33296213 -217.95109741 579.33410732 C-235.63534505 579.33502576 -253.31958918 579.33913905 -271.00383568 579.34550858 C-276.09082593 579.34730361 -281.17781619 579.34908324 -286.26480645 579.35085833 C-287.52937811 579.35130043 -288.79394977 579.35174252 -290.09684179 579.35219802 C-325.67494196 579.36450928 -361.25304112 579.37241063 -396.83114338 579.37151146 C-398.18653728 579.3714799 -399.54193118 579.37144843 -400.89732507 579.37141704 C-407.01683942 579.37127028 -413.13635377 579.37109394 -419.25586812 579.37090927 C-421.98472534 579.37082703 -424.71358256 579.37074673 -427.44243978 579.37066665 C-428.80828191 579.37062586 -430.17412405 579.37058382 -431.53996619 579.37054053 C-474.73263143 579.36917993 -517.92526387 579.38381637 -561.11791992 579.41162109 C-572.00095517 579.41862309 -582.88399044 579.42556199 -593.76702595 579.43214989 C-594.77218355 579.43275851 -594.77218355 579.43275851 -595.79764737 579.43337943 C-631.97540124 579.45515268 -668.15315707 579.45910417 -704.33091706 579.45769465 C-709.41885038 579.45754538 -714.5067837 579.45744797 -719.59471703 579.45738602 C-720.84753478 579.45736271 -722.10035253 579.4573394 -723.39113446 579.45731538 C-743.57267454 579.45725378 -763.75418698 579.47003817 -783.93571883 579.48725055 C-804.20968476 579.50418443 -824.48361016 579.50619846 -844.75757924 579.4930319 C-856.80874115 579.48562791 -868.8597801 579.48934392 -880.91092904 579.50891658 C-888.95641164 579.52088176 -897.00180482 579.51836419 -905.04728325 579.50397559 C-909.63423833 579.4961833 -914.22095481 579.49474472 -918.80789343 579.51089029 C-922.98169919 579.52545331 -927.15506777 579.52156956 -931.3288541 579.50304256 C-932.82847377 579.4996029 -934.32812771 579.50284717 -935.82771245 579.51364497 C-944.77670219 579.57376118 -953.86761301 579.54476506 -960.92968406 573.29125109 C-965.17668556 568.78478797 -966.74960851 564.46218297 -967.375 558.3125 C-967.00366038 547.45523683 -960.11694904 536.62387585 -955.49380493 527.02105713 C-953.78623428 523.47419361 -952.08993178 519.92197587 -950.39265442 516.37017822 C-949.52296526 514.55067698 -948.65267346 512.73146368 -947.78178406 510.91253662 C-943.75493179 502.50070183 -939.7766469 494.06652479 -935.8125 485.625 C-935.15857981 484.23361853 -934.50460843 482.84226112 -933.85058594 481.45092773 C-932.55062675 478.68520754 -931.25102715 475.91931877 -929.95166016 473.15332031 C-926.97149039 466.81015523 -923.98632124 460.46934275 -921.00164795 454.1282959 C-920.00429939 452.00913533 -919.00723155 449.88984291 -918.01025391 447.77050781 C-914.96711928 441.30188643 -911.92250449 434.83397694 -908.87191772 428.36886597 C-900.81378548 411.29095843 -892.81156947 394.19251755 -885 377 C-885.6029187 376.23598877 -885.6029187 376.23598877 -886.21801758 375.45654297 C-901.29940618 355.93354741 -899.42197141 330.49819929 -899.20599365 307.09606934 C-899.17483931 303.35446329 -899.16150525 299.61279318 -899.14648438 295.87109375 C-899.11468445 288.58055853 -899.06375078 281.2903335 -899 274 C-882.12109932 282.26518821 -882.12109932 282.26518821 -874.25 287.3125 C-867.78460966 291.35149509 -861.23804136 295.19313574 -854.5625 298.875 C-853.77069336 299.31497314 -852.97888672 299.75494629 -852.16308594 300.20825195 C-846.20053472 303.47053419 -840.23076267 306.16783515 -834 309 C-834 320.22 -834 331.44 -834 343 C-785.82 343 -737.64 343 -688 343 C-708.295 335.575 -708.295 335.575 -729 328 C-759.09406178 315.38364333 -788.83155936 301.56988841 -817.27246094 285.52783203 C-820.3075002 283.82775364 -823.35941148 282.16066636 -826.4140625 280.49609375 C-867.06899597 258.27327164 -906.44937082 232.80507295 -942 203 C-943.03771431 202.14968331 -944.07547717 201.29942588 -945.11328125 200.44921875 C-952.37503487 194.43197249 -959.18536579 188.02168519 -965.875 181.375 C-967.0515918 180.21218506 -967.0515918 180.21218506 -968.25195312 179.02587891 C-979.39417473 167.82459124 -979.39417473 167.82459124 -983 162 C-982.67 161.01 -982.34 160.02 -982 159 C-958.17578125 176.5546875 -958.17578125 176.5546875 -955.83227539 178.28173828 C-954.26798619 179.43420006 -952.70336626 180.58621306 -951.13842773 181.73779297 C-947.12091527 184.69501945 -943.1097589 187.66025931 -939.109375 190.640625 C-923.20841488 202.47074813 -907.11426465 212.85335621 -889.76708984 222.46435547 C-887.28312563 223.84287452 -884.80603269 225.23261314 -882.33203125 226.62890625 C-806.58467363 269.28497891 -723.36679222 298.42520158 -179.18896484 324.89599609 C-159.38853372 319.33271465 -140.69104137 311.47690138 -122 303 C-121.358349 302.70957825 -120.716698 302.41915649 -120.05560303 302.11993408 C-87.86740941 287.53559013 -56.94495119 272.58265719 -30.74609375 248.46484375 C-28.08124834 246.07292703 -25.35168175 243.80745116 -22.5625 241.5625 C-18.02946954 237.90641427 -13.7441497 234.0605263 -9.48950195 230.09057617 C-6.18776109 227.02983829 -2.78040146 224.17396469 0.75 221.375 C26.16531704 200.67293719 41.9971112 165.08614802 46 133 C46.24122687 127.56545096 46.24570718 122.12687075 46.25 116.6875 C46.25067474 115.92367004 46.25134949 115.15984009 46.25204468 114.37286377 C46.23603745 102.98259959 45.82376045 92.09009143 43 81 C42.83371094 80.34547852 42.66742187 79.69095703 42.49609375 79.01660156 C39.56544271 67.85299196 34.99088582 57.38029235 30 47 C29.51442627 45.98776367 29.51442627 45.98776367 29.01904297 44.95507812 C24.69023878 36.07299693 19.54760998 28.41308518 13.36914062 20.72705078 C10.82303627 17.51536351 8.37819594 14.22958292 5.9375 10.9375 C5.46014404 10.30585938 4.98278809 9.67421875 4.4909668 9.0234375 C2.28024851 6.0365688 0.73885851 3.63703964 0 0 Z M-759 383 C-759.98770716 386.18491607 -760.96359159 389.37333996 -761.9375 392.5625 C-762.21529297 393.45775391 -762.49308594 394.35300781 -762.77929688 395.27539062 C-764.26612285 400.16579414 -765.68392669 404.88230234 -766 410 C-763.22101038 412.77898962 -761.52293062 412.25814895 -757.63671875 412.265625 C-756.35732422 412.26820313 -755.07792969 412.27078125 -753.75976562 412.2734375 C-753.09114502 412.26924805 -752.42252441 412.26505859 -751.73364258 412.26074219 C-749.70558353 412.25009494 -747.67842109 412.26060967 -745.65039062 412.2734375 C-744.36712891 412.27085937 -743.08386719 412.26828125 -741.76171875 412.265625 C-740.58569092 412.26336914 -739.40966309 412.26111328 -738.19799805 412.25878906 C-735.00026636 412.00002155 -732.81028821 411.53484972 -730 410 C-728.58040733 406.81174518 -728.58040733 406.81174518 -727.8125 403 C-727.65233398 402.33025146 -727.49216797 401.66050293 -727.32714844 400.97045898 C-726.85973983 398.98492434 -726.4240863 396.99519114 -726 395 C-725.77183594 393.93910156 -725.54367187 392.87820313 -725.30859375 391.78515625 C-724.84534473 389.52722221 -724.40572686 387.2688673 -724 385 C-725.83423693 383.05846787 -727.36204984 382.08295042 -730.02783203 381.73632812 C-732.54524742 381.66731487 -735.04486609 381.68888789 -737.5625 381.75 C-738.45549805 381.76095703 -739.34849609 381.77191406 -740.26855469 381.78320312 C-746.54711829 381.88811192 -752.76407682 382.24908143 -759 383 Z M-820.21484375 384.59765625 C-822.45585602 387.61346051 -823.85027685 390.7697465 -825.1875 394.25 C-825.44724609 394.88035156 -825.70699219 395.51070312 -825.97460938 396.16015625 C-827.7938723 400.77647717 -828.54449754 405.06081671 -829 410 C-825.28625304 412.40644141 -821.66151166 412.25818641 -817.390625 412.1953125 C-816.66381531 412.1924826 -815.93700562 412.18965271 -815.18817139 412.18673706 C-812.87527749 412.17557523 -810.56277612 412.15047851 -808.25 412.125 C-806.67839102 412.11496501 -805.10677596 412.10584006 -803.53515625 412.09765625 C-799.68995378 412.07564904 -795.84504336 412.04114715 -792 412 C-787.38000525 403.08523887 -783.10547839 394.2869985 -784 384 C-788.89206232 379.10793768 -815.32377365 381.06952985 -820.21484375 384.59765625 Z M-697 383 C-698.88448056 387.84580716 -700.52003446 392.54745147 -701.6875 397.625 C-701.93886719 398.68976563 -702.19023438 399.75453125 -702.44921875 400.8515625 C-703.00485564 404.02775634 -703.31755272 406.78765514 -703 410 C-699.5592055 412.293863 -698.2775702 412.24652993 -694.23046875 412.23046875 C-693.09416016 412.22853516 -691.95785156 412.22660156 -690.78710938 412.22460938 C-689.59923828 412.21236328 -688.41136719 412.20011719 -687.1875 412.1875 C-686.01123047 412.18685547 -684.83496094 412.18621094 -683.62304688 412.18554688 C-675.74358437 412.23967799 -675.74358437 412.23967799 -668 411 C-663.74948652 402.80258115 -662.65518485 393.13760157 -663 384 C-665.95810476 382.52094762 -668.9547155 382.87809097 -672.1953125 382.90234375 C-672.90275604 382.9037587 -673.61019958 382.90517365 -674.33908081 382.90663147 C-676.60109669 382.912234 -678.86301398 382.92478682 -681.125 382.9375 C-682.65755065 382.94251468 -684.19010286 382.94707764 -685.72265625 382.95117188 C-689.48180888 382.96220423 -693.24088772 382.97947048 -697 383 Z M-636 383 C-636.66 387.063125 -637.32 391.12625 -638 395.3125 C-638.20882813 396.59036377 -638.41765625 397.86822754 -638.6328125 399.18481445 C-638.79523438 400.1924585 -638.95765625 401.20010254 -639.125 402.23828125 C-639.37636719 403.7857605 -639.37636719 403.7857605 -639.6328125 405.36450195 C-640.06899546 408.0517244 -640.06899546 408.0517244 -640 411 C-634.50757043 411.92031327 -629.18965097 412.18305539 -623.625 412.1875 C-622.42617188 412.20586914 -622.42617188 412.20586914 -621.203125 412.22460938 C-615.56201049 412.2383014 -610.45005631 411.44045364 -605 410 C-603.50128423 405.12602518 -602.52624324 400.45056243 -601.875 395.375 C-601.70742188 394.10398437 -601.53984375 392.83296875 -601.3671875 391.5234375 C-600.91362372 387.76157505 -600.91362372 387.76157505 -601 383 C-612.55 383 -624.1 383 -636 383 Z M-576 383 C-578.18937014 391.75748055 -578.1826969 401.00725278 -578 410 C-570.13274196 413.93362902 -555.95498179 412.96305406 -547.4375 411.3125 C-544.01793237 410.3033556 -544.01793237 410.3033556 -542.296875 408.125 C-540.32012185 403.36173939 -540.68633289 398.78293937 -540.8125 393.6875 C-540.874375 390.160625 -540.93625 386.63375 -541 383 C-552.55 383 -564.1 383 -576 383 Z M-516 383 C-516 392.24 -516 401.48 -516 411 C-511.35466878 411.06887641 -506.71110888 411.12860425 -502.06567383 411.16479492 C-500.48553464 411.17988094 -498.90543731 411.2003525 -497.32543945 411.22631836 C-495.05409415 411.26271126 -492.78330241 411.27972762 -490.51171875 411.29296875 C-489.80536789 411.30845261 -489.09901703 411.32393646 -488.3712616 411.33988953 C-484.47343857 411.35373997 -484.47343857 411.35373997 -481.09301758 409.60668945 C-478.63300732 405.99057878 -478.86634504 403.22844638 -478.875 398.875 C-478.87242187 397.59367187 -478.86984375 396.31234375 -478.8671875 394.9921875 C-479.00069142 390.97921665 -479.50197686 386.98418515 -480 383 C-491.88 383 -503.76 383 -516 383 Z M-453 383 C-453.061875 386.691875 -453.12375 390.38375 -453.1875 394.1875 C-453.21481201 395.3427417 -453.24212402 396.4979834 -453.27026367 397.68823242 C-453.27775635 398.60967041 -453.28524902 399.5311084 -453.29296875 400.48046875 C-453.3086792 401.41785889 -453.32438965 402.35524902 -453.34057617 403.32104492 C-452.92921139 406.55681965 -451.95354405 408.40470373 -450 411 C-446.45658132 412.18113956 -443.24852912 412.14951618 -439.5625 412.125 C-438.85399902 412.12234131 -438.14549805 412.11968262 -437.41552734 412.11694336 C-426.90385321 412.48552447 -426.90385321 412.48552447 -417 410 C-416.97067428 406.81251971 -416.95309261 403.62507472 -416.9375 400.4375 C-416.92493164 399.09461914 -416.92493164 399.09461914 -416.91210938 397.72460938 C-416.90888672 396.84482422 -416.90566406 395.96503906 -416.90234375 395.05859375 C-416.89710693 394.25736084 -416.89187012 393.45612793 -416.88647461 392.63061523 C-417.02580575 389.40202817 -417.54298386 386.19911298 -418 383 C-429.55 383 -441.1 383 -453 383 Z M-392 383 C-391.690625 387.24875 -391.38125 391.4975 -391.0625 395.875 C-390.96718994 397.2141748 -390.87187988 398.55334961 -390.77368164 399.93310547 C-390.69496826 400.98385254 -390.61625488 402.03459961 -390.53515625 403.1171875 C-390.456604 404.19597168 -390.37805176 405.27475586 -390.29711914 406.38623047 C-390.15398063 408.97814612 -390.15398063 408.97814612 -389 411 C-382.8822356 412.32116783 -376.6720516 412.18352642 -370.4375 412.1875 C-369.42236328 412.19974609 -368.40722656 412.21199219 -367.36132812 412.22460938 C-362.17671211 412.23476865 -357.84528528 412.09548235 -353 410 C-352.67699872 403.97064285 -353.31780615 398.46718202 -354.4375 392.5625 C-354.57196533 391.85222656 -354.70643066 391.14195312 -354.8449707 390.41015625 C-355.58145692 386.59574525 -355.58145692 386.59574525 -357 383 C-368.55 383 -380.1 383 -392 383 Z M-331 383 C-330.22806723 397.60380738 -330.22806723 397.60380738 -325 411 C-319.73898325 412.75367225 -314.13097029 412.18463827 -308.625 412.1875 C-307.39265625 412.19974609 -306.1603125 412.21199219 -304.890625 412.22460938 C-303.70210937 412.22654297 -302.51359375 412.22847656 -301.2890625 412.23046875 C-300.20318848 412.23457764 -299.11731445 412.23868652 -297.99853516 412.24291992 C-294.94862807 411.99583821 -292.75703161 411.28970297 -290 410 C-289.68252334 403.99236483 -290.83561439 398.89708369 -292.4375 393.125 C-292.66759766 392.25875 -292.89769531 391.3925 -293.13476562 390.5 C-293.95792013 386.43035077 -293.95792013 386.43035077 -296 383 C-298.59359322 382.91148471 -301.16039691 382.88474055 -303.75390625 382.90234375 C-304.52935287 382.9037587 -305.3047995 382.90517365 -306.10374451 382.90663147 C-308.59003494 382.91224655 -311.0762366 382.92480154 -313.5625 382.9375 C-315.24413933 382.94251306 -316.92578006 382.9470763 -318.60742188 382.95117188 C-322.73831566 382.96222087 -326.86914276 382.97949555 -331 383 Z M-268 383 C-266.32141861 393.29233785 -266.32141861 393.29233785 -263.625 403.125 C-263.4290625 403.76953125 -263.233125 404.4140625 -263.03125 405.078125 C-261.88923313 408.61076421 -261.88923313 408.61076421 -259.33959961 411.17431641 C-256.20361109 412.28105889 -253.47656574 412.2594621 -250.15234375 412.265625 C-249.17268394 412.26849518 -249.17268394 412.26849518 -248.17323303 412.27142334 C-246.79736952 412.2727802 -245.42149298 412.26911868 -244.0456543 412.26074219 C-241.94095142 412.25001759 -239.83709865 412.26066253 -237.73242188 412.2734375 C-236.39322729 412.27211615 -235.05403323 412.26955427 -233.71484375 412.265625 C-231.89134399 412.26224121 -231.89134399 412.26224121 -230.03100586 412.25878906 C-226.82310737 412.23011475 -226.82310737 412.23011475 -224 410 C-224.35767757 400.16386694 -227.42832304 394.1197514 -231 384 C-249.315 383.505 -249.315 383.505 -268 383 Z M-205 384 C-203.29764444 393.51004027 -203.29764444 393.51004027 -200.5625 402.5 C-200.15128906 403.6653125 -199.74007812 404.830625 -199.31640625 406.03125 C-197.77226057 409.55403277 -197.77226057 409.55403277 -195 412 C-191.7699776 412.43236822 -191.7699776 412.43236822 -188.06640625 412.328125 C-187.39206039 412.32625183 -186.71771454 412.32437866 -186.02293396 412.32244873 C-184.59816538 412.31573352 -183.17341507 412.30182932 -181.7487793 412.28125 C-179.57388053 412.25016267 -177.39970811 412.24028359 -175.22460938 412.234375 C-167.52128749 412.3736093 -167.52128749 412.3736093 -160 411 C-159.75150908 405.74139491 -160.46605063 401.85591824 -162.3125 396.9375 C-162.74175781 395.77089844 -163.17101562 394.60429688 -163.61328125 393.40234375 C-164.91860771 390.19969771 -166.45333786 387.09332427 -168 384 C-180.21 384 -192.42 384 -205 384 Z M-385 432 C-385.0933364 435.39718917 -384.85275113 438.79419253 -384.6875 442.1875 C-384.65205078 443.13431641 -384.61660156 444.08113281 -384.58007812 445.05664062 C-384.27631801 452.24132522 -384.27631801 452.24132522 -382 459 C-375.13938916 464.41543587 -359.54473145 462.07545863 -351.1875 461.75 C-349.8890918 461.71072388 -349.8890918 461.71072388 -348.56445312 461.6706543 C-347.75298828 461.62980713 -346.94152344 461.58895996 -346.10546875 461.546875 C-345.38512451 461.51432617 -344.66478027 461.48177734 -343.92260742 461.44824219 C-341.467054 460.87574745 -340.53482415 459.97309253 -339 458 C-337.6414481 449.60390448 -338.78314727 439.45277983 -343 432 C-347.07122169 430.28260757 -350.563471 429.75148861 -354.95703125 429.76953125 C-356.07013672 429.77146484 -357.18324219 429.77339844 -358.33007812 429.77539062 C-359.47927734 429.78763672 -360.62847656 429.79988281 -361.8125 429.8125 C-363.51889648 429.8134668 -363.51889648 429.8134668 -365.25976562 429.81445312 C-375.73035345 429.13177002 -375.73035345 429.13177002 -385 432 Z M-841 432 C-842.50514646 436.12314058 -844.00324372 440.24880702 -845.5 444.375 C-846.14388672 446.1384375 -846.14388672 446.1384375 -846.80078125 447.9375 C-847.20683594 449.05898438 -847.61289062 450.18046875 -848.03125 451.3359375 C-848.40830078 452.37282715 -848.78535156 453.4097168 -849.17382812 454.47802734 C-850.10377033 456.87446146 -850.10377033 456.87446146 -850 459 C-846.34302703 461.30754265 -843.2352916 461.24772733 -838.97167969 461.24291992 C-837.92206306 461.24576744 -837.92206306 461.24576744 -836.85124207 461.24867249 C-834.54133847 461.25237225 -832.23175062 461.24168287 -829.921875 461.23046875 C-828.31007931 461.22927578 -826.69828292 461.22882404 -825.08648682 461.2290802 C-821.70719044 461.22751641 -818.32800015 461.21923821 -814.94873047 461.20581055 C-810.63374327 461.18887551 -806.31887319 461.18499483 -802.00385666 461.18575573 C-798.67341001 461.18548261 -795.34298857 461.17997787 -792.01255035 461.17275429 C-790.42266277 461.16958828 -788.83277234 461.16760509 -787.24288177 461.16686058 C-785.01050553 461.16467179 -782.77824864 461.15587217 -780.54589844 461.14526367 C-779.27889099 461.14145187 -778.01188354 461.13764008 -776.70648193 461.13371277 C-772.73794057 460.9905461 -768.9310661 460.54694853 -765 460 C-761.92096391 451.00204018 -760.07496872 442.43426495 -759 433 C-769.48512849 430.67304768 -779.76621906 430.73024657 -790.4375 430.8125 C-792.25252146 430.81936958 -794.06754433 430.8258765 -795.88256836 430.83203125 C-810.93390162 430.90486555 -825.96400739 431.31380832 -841 432 Z M-734 432 C-734.85016724 434.99548288 -735.67694586 437.99696463 -736.5 441 C-736.73847656 441.83917969 -736.97695313 442.67835938 -737.22265625 443.54296875 C-738.6647224 448.85801257 -739.44289618 453.48840311 -739 459 C-736.39806871 461.60193129 -734.60025886 461.23772505 -731.05665588 461.25224304 C-729.83945107 461.24146477 -729.83945107 461.24146477 -728.59765625 461.23046875 C-727.76415146 461.23001053 -726.93064667 461.22955231 -726.07188416 461.2290802 C-724.3074298 461.22605659 -722.54297814 461.21816706 -720.77856445 461.20581055 C-718.07688946 461.18759701 -715.375558 461.18530057 -712.67382812 461.18554688 C-710.96093454 461.18062998 -709.24804327 461.17480091 -707.53515625 461.16796875 C-706.7257106 461.16685593 -705.91626495 461.1657431 -705.08229065 461.16459656 C-701.80364882 461.13685877 -699.13176382 461.04392127 -696 460 C-694.35 450.76 -692.7 441.52 -691 432 C-695.55656713 431.24057214 -699.34746896 430.8715382 -703.90234375 430.8671875 C-705.85624023 430.86525391 -705.85624023 430.86525391 -707.84960938 430.86328125 C-708.52145264 430.86537598 -709.1932959 430.8674707 -709.88549805 430.86962891 C-711.9282985 430.87497592 -713.97087824 430.86967036 -716.01367188 430.86328125 C-717.96950195 430.86521484 -717.96950195 430.86521484 -719.96484375 430.8671875 C-721.73782837 430.86887939 -721.73782837 430.86887939 -723.54663086 430.87060547 C-727.09198203 431.00344648 -730.49922558 431.43753014 -734 432 Z M-665 431 C-665.48857143 433.19307975 -665.9719136 435.38732479 -666.453125 437.58203125 C-666.72286133 438.8038208 -666.99259766 440.02561035 -667.27050781 441.28442383 C-669.22061332 450.69035099 -669.22061332 450.69035099 -668 460 C-665.04411532 461.47794234 -662.03780565 461.16276211 -658.796875 461.16796875 C-657.72376068 461.17296135 -657.72376068 461.17296135 -656.62896729 461.17805481 C-655.11251468 461.18312176 -653.59605091 461.18546321 -652.07958984 461.18530273 C-649.77292128 461.18747838 -647.46673947 461.20560585 -645.16015625 461.22460938 C-643.68489746 461.22754562 -642.20963641 461.22952887 -640.734375 461.23046875 C-639.70748566 461.24124702 -639.70748566 461.24124702 -638.65985107 461.25224304 C-634.41484484 461.23226631 -630.86591367 460.803294 -627 459 C-625.96504707 456.14155858 -625.40291104 453.95119256 -625 451 C-624.79375 449.72125 -624.5875 448.4425 -624.375 447.125 C-623.86706371 442.47045652 -623.48877611 437.66166873 -624 433 C-625.97890322 430.57859227 -625.97890322 430.57859227 -629.80712891 430.77294922 C-631.4469742 430.77326654 -633.08684017 430.78460319 -634.7265625 430.8046875 C-636.02078629 430.80893234 -636.02078629 430.80893234 -637.34115601 430.81326294 C-640.1025772 430.82447667 -642.8636765 430.84958316 -645.625 430.875 C-647.49478699 430.88502827 -649.36457905 430.89415438 -651.234375 430.90234375 C-655.82304109 430.92441988 -660.41146593 430.95895766 -665 431 Z M-593 431 C-594.68079794 441.07272404 -594.68079794 441.07272404 -595.375 451.0625 C-595.40335938 452.10535156 -595.43171875 453.14820313 -595.4609375 454.22265625 C-594.85754693 457.85834013 -593.95130966 458.80850551 -591 461 C-588.16647248 461.27995705 -585.76355822 461.33228664 -582.953125 461.171875 C-582.18192322 461.14401917 -581.41072144 461.11616333 -580.6161499 461.08746338 C-578.15953974 460.99429256 -575.70530268 460.87254887 -573.25 460.75 C-571.58210753 460.68170477 -569.91413748 460.61527676 -568.24609375 460.55078125 C-564.16284708 460.3888192 -560.08149244 460.20122707 -556 460 C-553.72691044 455.93622973 -552.62852821 453.04065965 -552.70703125 448.3828125 C-552.71452393 447.46387207 -552.7220166 446.54493164 -552.72973633 445.59814453 C-552.77070435 443.87893799 -552.77070435 443.87893799 -552.8125 442.125 C-552.874375 438.45375 -552.93625 434.7825 -553 431 C-566.2 431 -579.4 431 -593 431 Z M-524 431 C-524.77220641 436.4054449 -525.18273675 441.23300638 -525.1875 446.625 C-525.19974609 447.36234375 -525.21199219 448.0996875 -525.22460938 448.859375 C-525.23564859 452.96596116 -525.16329703 456.4377254 -523 460 C-517.67561092 462.0001087 -511.40356032 461.18594433 -505.78320312 461.18530273 C-503.63911988 461.18748562 -501.49555459 461.20565125 -499.3515625 461.22460938 C-497.97656425 461.22754454 -496.60156357 461.22952851 -495.2265625 461.23046875 C-493.98471191 461.23457764 -492.74286133 461.23868652 -491.46337891 461.24291992 C-487.9105212 460.993724 -485.22195125 460.52480786 -482 459 C-481.00766602 457.15147891 -481.00766602 457.15147891 -481 455 C-480.92809448 454.00444092 -480.92809448 454.00444092 -480.85473633 452.98876953 C-480.83006782 450.70069936 -480.81434831 448.41321284 -480.8125 446.125 C-480.79413086 444.93970703 -480.79413086 444.93970703 -480.77539062 443.73046875 C-480.77345703 442.95574219 -480.77152344 442.18101562 -480.76953125 441.3828125 C-480.76542236 440.68559082 -480.76131348 439.98836914 -480.75708008 439.27001953 C-480.99183682 436.3128625 -480.99183682 436.3128625 -483 431 C-496.53 431 -510.06 431 -524 431 Z M-453 431 C-453.78047474 437.24379791 -454.12619457 442.62441839 -453.875 448.8125 C-453.8646875 449.65748047 -453.854375 450.50246094 -453.84375 451.37304688 C-453.81023438 452.18451172 -453.77671875 452.99597656 -453.7421875 453.83203125 C-453.7201123 454.56139893 -453.69803711 455.2907666 -453.67529297 456.04223633 C-453.11815205 458.20437701 -453.11815205 458.20437701 -450.92651367 459.73120117 C-447.37669447 461.27023599 -444.23736927 461.46762906 -440.43359375 461.46875 C-439.7176857 461.47636353 -439.00177765 461.48397705 -438.26417542 461.49182129 C-436.75728836 461.50258469 -435.25032694 461.50549071 -433.7434082 461.50097656 C-431.44030892 461.50000119 -429.14051191 461.54171774 -426.83789062 461.5859375 C-425.36979859 461.59114297 -423.90169502 461.59383272 -422.43359375 461.59375 C-421.4053373 461.6183429 -421.4053373 461.6183429 -420.35630798 461.64343262 C-416.71575444 461.59084871 -415.24928912 461.2339563 -412.55883789 458.70898438 C-408.44552307 451.56077117 -411.59848126 440.70323806 -413 433 C-413.495 432.01 -413.495 432.01 -414 431 C-426.87 431 -439.74 431 -453 431 Z M-314 433 C-315.21492158 439.11298246 -313.44580139 445.62787603 -312 451.5625 C-311.80921875 452.38041016 -311.6184375 453.19832031 -311.421875 454.04101562 C-310.95674873 456.02943044 -310.47964573 458.01503756 -310 460 C-302.46295948 461.20211026 -294.99425273 461.14785776 -287.375 461.125 C-286.07820312 461.12886719 -284.78140625 461.13273437 -283.4453125 461.13671875 C-282.19234375 461.13542969 -280.939375 461.13414062 -279.6484375 461.1328125 C-278.51583496 461.13168457 -277.38323242 461.13055664 -276.21630859 461.12939453 C-273.06381456 461.00256731 -270.09645246 460.58910403 -267 460 C-265.35113174 454.04408798 -266.84353715 449.07011838 -268.3125 443.25 C-268.53873047 442.29222656 -268.76496094 441.33445312 -268.99804688 440.34765625 C-270.06759509 435.18375462 -270.06759509 435.18375462 -273 431 C-275.8338241 430.80004969 -278.56778983 430.72023328 -281.40234375 430.734375 C-282.65260094 430.73150482 -282.65260094 430.73150482 -283.92811584 430.72857666 C-285.69255881 430.7272145 -287.45701179 430.73091311 -289.22143555 430.73925781 C-291.92324363 430.74994362 -294.62438474 430.73937068 -297.32617188 430.7265625 C-299.03906397 430.72788435 -300.75195565 430.73044728 -302.46484375 430.734375 C-303.2742894 430.73032654 -304.08373505 430.72627808 -304.91770935 430.72210693 C-308.79612577 430.75453044 -310.69905428 430.79936952 -314 433 Z M-245 432 C-244.40698928 435.18971302 -243.79977832 438.37642625 -243.1875 441.5625 C-243.02185547 442.45775391 -242.85621094 443.35300781 -242.68554688 444.27539062 C-241.66358182 449.5394748 -240.48823372 454.23036306 -238 459 C-230.63276406 463.91149062 -218.60263259 462.14825869 -209.9921875 462.1328125 C-208.1839299 462.13424759 -208.1839299 462.13424759 -206.33914185 462.13571167 C-203.80291695 462.13638798 -201.26669026 462.13457228 -198.73046875 462.13037109 C-194.90620911 462.12504348 -191.08206841 462.13032038 -187.2578125 462.13671875 C-176.69127865 462.14067104 -166.12632125 462.13555113 -155.5703125 461.6171875 C-154.52422318 461.5716423 -154.52422318 461.5716423 -153.45700073 461.525177 C-149.35170957 461.2818362 -145.83959189 460.46089979 -142 459 C-142.26924668 451.59571641 -144.52410488 437.47589512 -150 432 C-159.26081428 430.48094391 -168.80772565 430.85353259 -178.1640625 430.8671875 C-179.80829889 430.8665122 -181.45253519 430.86554031 -183.09677124 430.86428833 C-186.52415935 430.8628228 -189.95152121 430.86492938 -193.37890625 430.86962891 C-197.75075678 430.87533455 -202.122546 430.87203459 -206.4943943 430.86605644 C-209.88319351 430.8624275 -213.27197839 430.86359996 -216.66077805 430.86618423 C-218.27216982 430.86684658 -219.88356295 430.86604955 -221.49495316 430.86370468 C-229.38933059 430.85473196 -237.1661966 430.88151992 -245 432 Z M-772.51171875 482.44140625 C-774.80995512 486.39244253 -775.77945098 490.50969298 -776.8125 494.9375 C-777.04130859 495.83146484 -777.27011719 496.72542969 -777.50585938 497.64648438 C-778.6148212 502.21459318 -779.16318192 505.36625678 -778 510 C-774.42769765 511.19076745 -771.18196188 511.14312714 -767.46484375 511.1328125 C-766.34400139 511.13479141 -766.34400139 511.13479141 -765.20051575 511.1368103 C-762.779468 511.13872344 -760.35853591 511.13240707 -757.9375 511.125 C-756.71371643 511.12367065 -756.71371643 511.12367065 -755.46520996 511.12231445 C-743.95164286 511.10752064 -732.48116678 510.93997857 -721 510 C-720.31842063 506.85721216 -719.65756942 503.71039147 -719 500.5625 C-718.80921875 499.68400391 -718.6184375 498.80550781 -718.421875 497.90039062 C-717.23259938 492.14514613 -716.80870572 486.87632109 -717 481 C-727.33446133 480.32470264 -737.64189083 479.89540169 -748 479.875 C-748.92949463 479.87048828 -749.85898926 479.86597656 -750.81665039 479.86132812 C-762.05373628 479.38419458 -762.05373628 479.38419458 -772.51171875 482.44140625 Z M-689 481 C-689.48715088 482.26805403 -689.97136278 483.53723737 -690.4543457 484.80688477 C-690.72430862 485.51353775 -690.99427155 486.22019073 -691.27241516 486.94825745 C-693.88878004 494.32623849 -694.25837281 502.24881564 -694 510 C-688.09316435 510.83557383 -682.30928063 511.19932449 -676.34790039 511.31201172 C-674.95043611 511.34274717 -674.95043611 511.34274717 -673.52474022 511.37410355 C-670.44496059 511.43958531 -667.3651058 511.49778896 -664.28515625 511.5546875 C-663.20660936 511.57562344 -662.12806248 511.59655937 -661.01683235 511.61812973 C-636.70461683 512.08396044 -612.3961119 512.15711974 -588.0801239 512.12897491 C-584.3692932 512.12492557 -580.65846409 512.12244994 -576.94763184 512.12030029 C-556.29834956 512.10675124 -535.64919646 512.05952362 -515 512 C-514.08693368 511.99738159 -513.17386736 511.99476318 -512.23313236 511.99206543 C-483.22359668 511.90844741 -454.21423407 511.79809209 -425.20487887 511.66626704 C-417.84768792 511.6332547 -410.4904878 511.60502391 -403.13327026 511.57867432 C-394.09561684 511.54614013 -385.05802936 511.50632701 -376.02044922 511.45741057 C-371.3456039 511.43226261 -366.67079913 511.41028876 -361.99590492 511.3966217 C-357.67320316 511.383846 -353.35064839 511.36186327 -349.02802765 511.33260894 C-347.455201 511.32356148 -345.88235093 511.3178569 -344.30949962 511.31578851 C-342.16814124 511.31246017 -340.02719862 511.29697862 -337.88592529 511.2784729 C-336.69303265 511.27294214 -335.50014 511.26741138 -334.27109909 511.26171303 C-330.89143308 510.99131381 -328.15671516 510.20708987 -325 509 C-324.61508094 502.27104457 -325.18543549 495.97181949 -326.4375 489.375 C-326.57196533 488.66408203 -326.70643066 487.95316406 -326.8449707 487.22070312 C-327.30287863 483.82239265 -327.30287863 483.82239265 -329 481 C-331.4618905 480.75065817 -333.89344549 480.57375892 -336.36291504 480.44558716 C-337.15888422 480.40345978 -337.95485341 480.3613324 -338.77494287 480.31792843 C-350.57332236 479.76113002 -362.38499177 479.86058792 -374.19335938 479.87060547 C-376.89990352 479.86924763 -379.60644495 479.86750091 -382.31298828 479.86529541 C-388.87124056 479.86087626 -395.42948131 479.86179863 -401.98773402 479.86470805 C-407.3481723 479.86698503 -412.70860739 479.86726474 -418.06904602 479.86618423 C-418.83806387 479.866031 -419.60708171 479.86587777 -420.39940313 479.86571989 C-421.9631511 479.86540007 -423.52689907 479.86507585 -425.09064704 479.8647473 C-439.72928654 479.86190176 -454.36791977 479.86516099 -469.00655824 479.87054767 C-481.42950556 479.8749791 -493.85244349 479.87426855 -506.27539062 479.86962891 C-520.80678667 479.86420409 -535.33817715 479.86221349 -549.86957407 479.86524117 C-551.43915717 479.86555958 -553.00874027 479.86587396 -554.57832336 479.86618423 C-555.73562771 479.86641565 -555.73562771 479.86641565 -556.91631195 479.86665174 C-562.2182725 479.86749627 -567.52022935 479.86608096 -572.82218933 479.86370468 C-611.5594967 479.8478012 -650.27036134 480.17959283 -689 481 Z M-300 481 C-303.06964959 487.13929918 -300.74737652 495.1409651 -299.25 501.5 C-299.09313721 502.20656738 -298.93627441 502.91313477 -298.7746582 503.64111328 C-297.82319876 507.45911493 -297.82319876 507.45911493 -295.359375 510.40625 C-288.27680909 512.18861758 -281.13558391 512.1929049 -273.875 512.1875 C-272.36172119 512.18737915 -272.36172119 512.18737915 -270.81787109 512.18725586 C-258.12641505 512.78419919 -258.12641505 512.78419919 -247 509 C-246.6668981 503.34466989 -247.57181296 498.25413886 -248.8125 492.75 C-248.97814453 491.94820312 -249.14378906 491.14640625 -249.31445312 490.3203125 C-249.48525391 489.54945313 -249.65605469 488.77859375 -249.83203125 487.984375 C-249.98389893 487.29053711 -250.1357666 486.59669922 -250.29223633 485.88183594 C-251.19678048 483.47679064 -251.88334946 482.49110644 -254 481 C-258.89591597 479.96304239 -263.69941974 479.87149332 -268.69140625 479.8671875 C-269.39974106 479.86623077 -270.10807587 479.86527405 -270.83787537 479.86428833 C-272.32445363 479.86361239 -273.81103495 479.86542544 -275.29760742 479.86962891 C-277.559801 479.8749936 -279.8217968 479.86965983 -282.08398438 479.86328125 C-283.53645877 479.86394198 -284.98893304 479.86522304 -286.44140625 479.8671875 C-287.74795166 479.86831543 -289.05449707 479.86944336 -290.40063477 479.87060547 C-293.71862104 479.98988463 -296.77019275 480.23098378 -300 481 Z M-860 482 C-861.27966898 484.4375951 -861.27966898 484.4375951 -862.296875 487.4609375 C-862.69777344 488.57210938 -863.09867188 489.68328125 -863.51171875 490.828125 C-863.92035156 491.99859375 -864.32898438 493.1690625 -864.75 494.375 C-865.17410156 495.53773438 -865.59820313 496.70046875 -866.03515625 497.8984375 C-868.55538114 503.87911153 -868.55538114 503.87911153 -868 510 C-863.34977331 512.1433875 -858.90922104 512.25854265 -853.8828125 512.15625 C-852.71360764 512.14410461 -852.71360764 512.14410461 -851.52078247 512.13171387 C-849.01344605 512.10094862 -846.50696145 512.05291739 -844 512 C-843.17060913 511.98356445 -842.34121826 511.96712891 -841.48669434 511.95019531 C-835.61524786 511.82917576 -829.74523951 511.66869155 -823.875 511.5 C-822.12630833 511.45159668 -820.37761041 511.40341867 -818.62890625 511.35546875 C-814.41919466 511.23956074 -810.20957799 511.12065874 -806 511 C-803.95863728 505.65046551 -802.12529882 500.3567796 -800.6875 494.8125 C-800.39649414 493.78479492 -800.39649414 493.78479492 -800.09960938 492.73632812 C-799.274561 489.54961713 -798.92825192 487.29690226 -799.70703125 484.07421875 C-800.8923406 481.68155578 -800.8923406 481.68155578 -804 481 C-805.71744209 480.90730197 -807.43826182 480.87208347 -809.15820312 480.87060547 C-810.7349884 480.86587723 -810.7349884 480.86587723 -812.34362793 480.86105347 C-813.47804321 480.8630777 -814.6124585 480.86510193 -815.78125 480.8671875 C-816.94628052 480.86623077 -818.11131104 480.86527405 -819.31164551 480.86428833 C-821.77628636 480.86360744 -824.240929 480.86545536 -826.70556641 480.86962891 C-830.48474137 480.8749784 -834.26379749 480.86968078 -838.04296875 480.86328125 C-840.4348961 480.86394205 -842.82682337 480.86522324 -845.21875 480.8671875 C-846.35316528 480.86516327 -847.48758057 480.86313904 -848.65637207 480.86105347 C-849.70756226 480.86420563 -850.75875244 480.86735779 -851.84179688 480.87060547 C-853.23054016 480.87179886 -853.23054016 480.87179886 -854.64733887 480.87301636 C-857.1537504 480.90422909 -857.1537504 480.90422909 -860 482 Z M-225 482 C-225.28626428 487.79491747 -224.28584278 492.63222838 -222.6875 498.1875 C-222.47416016 498.98091797 -222.26082031 499.77433594 -222.04101562 500.59179688 C-220.89436917 504.66838174 -219.92581619 507.82392867 -217 511 C-214.68554767 511.62201756 -214.68554767 511.62201756 -212.04248047 511.56176758 C-211.02698624 511.58465851 -210.011492 511.60754944 -208.96522522 511.63113403 C-207.30794655 511.63776566 -207.30794655 511.63776566 -205.6171875 511.64453125 C-204.46637192 511.66393768 -203.31555634 511.68334412 -202.12986755 511.70333862 C-198.37819303 511.76029404 -194.6270136 511.78756898 -190.875 511.8125 C-188.31403716 511.84208003 -185.75308316 511.87243583 -183.19213867 511.90356445 C-169.23063672 512.05063984 -155.27020768 512.07697221 -141.3125 511.6875 C-139.99942871 511.65309814 -138.68635742 511.61869629 -137.33349609 511.58325195 C-132.05568259 511.38648979 -127.85895089 511.20539089 -123 509 C-122.74590211 503.68454679 -123.54970077 499.34518465 -125.3125 494.375 C-125.52583984 493.73304688 -125.73917969 493.09109375 -125.95898438 492.4296875 C-127.25047544 488.66701501 -128.59945639 485.18887027 -131 482 C-135.07735745 480.63402969 -139.24837973 480.85991777 -143.50048828 480.87060547 C-144.35617401 480.86885315 -145.21185974 480.86710083 -146.09347534 480.86529541 C-148.91910841 480.86089746 -151.7446788 480.86380714 -154.5703125 480.8671875 C-156.53278617 480.86651399 -158.49525977 480.86554358 -160.45773315 480.86428833 C-164.56834712 480.86281425 -168.67893934 480.8649571 -172.78955078 480.86962891 C-178.06693814 480.87533353 -183.34427473 480.87204072 -188.62166023 480.86605644 C-192.67243841 480.86244943 -196.72320447 480.86358993 -200.773983 480.86618423 C-202.72050864 480.86685273 -204.66703536 480.86602779 -206.61355972 480.86370468 C-209.32850324 480.86117507 -212.04336349 480.86502281 -214.75830078 480.87060547 C-215.56769104 480.86858124 -216.3770813 480.86655701 -217.21099854 480.86447144 C-221.23596683 480.7868608 -221.23596683 480.7868608 -225 482 Z " fill="#003265" transform="translate(1075,199)"/>
<path d="M0 0 C-2.91176123 3.18139265 -5.72649704 5.12845355 -9.55078125 7.1015625 C-11.17681274 7.952948 -11.17681274 7.952948 -12.83569336 8.8215332 C-14.55671265 9.71424927 -14.55671265 9.71424927 -16.3125 10.625 C-54.79878239 30.90851688 -84.86329844 60.31491658 -98.25610352 102.69482422 C-100.32993373 109.70547148 -101.83227012 116.78447509 -103 124 C-103.13148437 124.75796875 -103.26296875 125.5159375 -103.3984375 126.296875 C-110.05477405 172.71132986 -87.03100263 218.28620427 -60.3125 254.4375 C-58.8797214 256.29531748 -57.44179697 258.14917268 -56 260 C-55.36433105 260.81742676 -54.72866211 261.63485352 -54.07373047 262.47705078 C-48.32506502 269.68269359 -42.07874442 276.23031311 -35.54223633 282.71850586 C-33.79722948 284.45267569 -32.06332378 286.19744272 -30.33007812 287.94335938 C-29.2063707 289.06574682 -28.08204391 290.18751459 -26.95703125 291.30859375 C-26.44751419 291.82215927 -25.93799713 292.33572479 -25.41304016 292.86485291 C-22.18014089 296.05624567 -18.79839338 298.52809306 -15 301 C-15.1053582 299.35346939 -15.1053582 299.35346939 -15.21284485 297.67367554 C-16.32052045 278.37719426 -16.1646857 259.05797187 -16.16725707 239.73742723 C-16.16797466 236.70157093 -16.17012195 233.66571895 -16.17275429 230.62986374 C-16.18195521 220.00372792 -16.18609507 209.37760452 -16.18530273 198.75146484 C-16.1847006 188.89812756 -16.19529254 179.04484477 -16.2110464 169.19152129 C-16.22416602 160.67794435 -16.22948491 152.16438516 -16.22884732 143.6507982 C-16.22859401 138.58907473 -16.23135351 133.52740005 -16.24202538 128.4656868 C-16.25178361 123.7097398 -16.25173324 118.95388757 -16.24450874 114.19793701 C-16.24347305 112.46630081 -16.24576442 110.73465844 -16.2518692 109.00303268 C-16.34973036 79.29302118 -16.34973036 79.29302118 -11 72 C-8.12570657 70.56285329 -5.59766826 70.78060368 -2.38202763 70.68814278 C-1.67519955 70.66767031 -0.96837148 70.64719784 -0.24012437 70.626105 C2.20599662 70.55894869 4.65221069 70.50133489 7.09861755 70.44558716 C8.4186003 70.41412986 8.4186003 70.41412986 9.76524936 70.38203706 C38.69589835 69.71500065 67.64126174 69.85712916 96.5778343 69.86833142 C105.54116523 69.8715947 114.5044923 69.8688943 123.46782305 69.86612797 C141.01510458 69.86090252 158.56238243 69.86130201 176.1096643 69.86420688 C191.45104915 69.86673384 206.79243266 69.86737383 222.13381767 69.86618423 C223.66703164 69.86606966 223.66703164 69.86606966 225.23121962 69.86595276 C229.38134377 69.86564138 233.53146791 69.86532297 237.68159206 69.864993 C276.49392287 69.86194389 315.30625135 69.86469275 354.1185818 69.8700899 C388.56432596 69.87484337 423.01006642 69.87440225 457.45581055 69.86962891 C496.24009029 69.86427218 535.02436799 69.86215133 573.80864805 69.86524117 C577.94295752 69.86556186 582.07726699 69.8658747 586.21157646 69.86618423 C587.22940568 69.86626331 588.24723491 69.86634239 589.29590744 69.86642386 C604.64104419 69.86755958 619.98617945 69.86623452 635.33131599 69.86370468 C652.76615702 69.86084449 670.20099384 69.8615627 687.63583434 69.86698543 C697.38409734 69.86991764 707.1323512 69.87011915 716.88061396 69.86633925 C723.39750165 69.86409142 729.91438205 69.86550224 736.43126866 69.86984402 C740.13957661 69.87221443 743.84786645 69.87305361 747.55617381 69.86943804 C772.76656343 69.84729364 772.76656343 69.84729364 782.73621273 70.25793648 C783.92929702 70.3031969 785.1223813 70.34845732 786.35161966 70.39508927 C789 71 789 71 790.36682552 72.82475871 C791.32982655 76.13310367 791.45740374 79.43869474 791.59036255 82.85942078 C791.62720378 83.64887327 791.66404501 84.43832576 791.70200264 85.25170106 C792.14269325 95.24605839 792.36102739 105.24760822 792.55419922 115.24926758 C792.57516151 116.29825655 792.59612381 117.34724551 792.61772132 118.42802203 C793.10151359 143.07816381 793.147917 167.72580004 793.1343255 192.37988257 C793.13171728 198.64069131 793.13416249 204.90149891 793.13571167 211.16230774 C793.13751126 221.6727424 793.13518798 232.18316995 793.13037109 242.69360352 C793.12554983 253.33293087 793.12554182 263.97224437 793.13037109 274.61157227 C793.18104798 388.84719696 793.18104798 388.84719696 792 439 C783.48643227 442.24108929 783.48643227 442.24108929 779.57861328 443.31860352 C778.81066437 443.53214981 778.04271545 443.74569611 777.25149536 443.9657135 C776.04805984 444.29399391 776.04805984 444.29399391 774.8203125 444.62890625 C773.96750702 444.86407455 773.11470154 445.09924286 772.23605347 445.34153748 C770.44318778 445.83489885 768.64981324 446.32641448 766.85595703 446.81616211 C764.13813763 447.55890964 761.42251323 448.30930449 758.70703125 449.06054688 C756.95325152 449.54212764 755.19934914 450.02326206 753.4453125 450.50390625 C752.24794968 450.83522301 752.24794968 450.83522301 751.02639771 451.17323303 C743.37053553 453.25362279 735.97573865 455.15576594 728 455 C727.98969254 453.80907242 727.97938507 452.61814484 727.96876526 451.39112854 C727.84708115 437.36495858 727.72229452 423.33881736 727.59614182 409.31268692 C727.56243497 405.55525133 727.52901905 401.79781323 727.49563599 398.04037476 C727.19734415 363.07373446 727.19734415 363.07373446 726.7109375 328.109375 C726.68749927 326.71590688 726.66406681 325.32243866 726.64064026 323.92897034 C726.60627826 321.8914795 726.57189981 319.85398894 726.53749943 317.81649876 C725.94631893 282.65033929 725.89056542 247.48380109 725.87788659 212.31352037 C725.87624864 207.86833402 725.87329719 203.42315134 725.86918443 198.97796661 C725.8620264 191.21769644 725.86069684 183.4574517 725.86561775 175.69717979 C725.86665427 173.07535503 725.86609964 170.4535291 725.86385918 167.83170509 C725.86129524 164.19849153 725.865122 160.56533807 725.87060547 156.93212891 C725.86756487 155.3538467 725.86756487 155.3538467 725.86446285 153.74368 C725.86728551 152.74880668 725.87010817 151.75393335 725.87301636 150.72891235 C725.87339338 149.88257547 725.87377041 149.03623859 725.87415886 148.16425514 C726.06237118 143.43168681 726.57119469 138.71685837 727 134 C503.26 134.33 279.52 134.66 49 135 C49 187.8 49 240.6 49 295 C48.67 311.83 48.34 328.66 48 346 C49.65 346.66 51.3 347.32 53 348 C55.457391 349.22156022 57.88865749 350.46519316 60.3125 351.75 C61.04251221 352.13631592 61.77252441 352.52263184 62.5246582 352.9206543 C69.00662318 356.39215288 75.3498413 360.08560417 81.6875 363.8125 C131.38121753 392.99118026 183.62009363 415.20116848 238 434 C239.19367188 434.41781738 240.38734375 434.83563477 241.6171875 435.26611328 C329.71768752 466.00663104 422.96318649 487.22956554 523 494 C523.74750519 494.04236786 524.49501038 494.08473572 525.26516724 494.12838745 C540.78216597 494.98648178 556.27376204 495.20186604 571.8125 495.1875 C573.63974609 495.18659363 573.63974609 495.18659363 575.50390625 495.18566895 C632.15936351 495.10997572 689.03261035 491.60887745 743.79345703 476.25146484 C744.56635071 476.0365741 745.33924438 475.82168335 746.13555908 475.60028076 C747.57432377 475.19816014 749.01116201 474.78904944 750.44549561 474.37139893 C754.3995997 473.26250298 757.89715018 472.79910567 762 473 C714.25637494 511.10239045 632.96303419 518.74227933 574.5625 523.75 C573.87603394 523.80916595 573.18956787 523.86833191 572.4822998 523.92929077 C551.25588535 525.72463774 530.04749665 526.23997853 508.75 526.25 C506.79329376 526.25101212 506.79329376 526.25101212 504.79705811 526.25204468 C408.05729214 526.2159939 310.85675397 510.81741037 199 477 C198.23723755 476.75721313 197.4744751 476.51442627 196.68859863 476.26428223 C161.86464266 465.14694052 127.47608505 452.70590419 94 438 C93.34124878 437.71080688 92.68249756 437.42161377 92.00378418 437.12365723 C63.48526185 424.57825369 35.37263176 411.14593225 8.45019531 395.43017578 C6.16790857 394.09800801 3.87828934 392.77959026 1.5859375 391.46484375 C-30.61650835 372.89083921 -61.86744204 351.67870067 -89.2578125 326.4609375 C-91.90015883 324.08960105 -94.60694167 321.84747003 -97.375 319.625 C-102.23204076 315.70601432 -106.81735866 311.55964894 -111.37231445 307.29907227 C-114.21250707 304.64288377 -117.07815612 302.05770868 -120.0625 299.5625 C-129.38687888 291.4774373 -137.38122014 281.65494935 -145 272 C-145.80050781 270.99453125 -146.60101563 269.9890625 -147.42578125 268.953125 C-172.23739238 237.48533136 -191.4422151 199.66429027 -191.31567383 158.81958008 C-191.31251884 156.70015673 -191.33605512 154.58214239 -191.36132812 152.46289062 C-191.42052175 139.88228414 -189.39283277 127.94424685 -185.3125 116 C-185.05758789 115.25073242 -184.80267578 114.50146484 -184.54003906 113.72949219 C-176.15375935 90.05353167 -159.69296947 70.22406565 -140 55 C-139.26136719 54.37222656 -138.52273437 53.74445312 -137.76171875 53.09765625 C-116.70737188 35.31600578 -90.8484328 23.83710783 -65 15 C-64.1032959 14.6911084 -63.2065918 14.3822168 -62.28271484 14.06396484 C-49.37709858 9.69382167 -36.2193991 6.53876408 -22.9375 3.5625 C-22.14065796 3.38274628 -21.34381592 3.20299255 -20.52282715 3.01779175 C-18.23439324 2.50489441 -15.94397162 2.0023184 -13.65234375 1.50390625 C-12.96887375 1.35116241 -12.28540375 1.19841858 -11.58122253 1.04104614 C-7.65554248 0.20448441 -4.01070823 -0.14949392 0 0 Z " fill="#FECB00" transform="translate(191,0)"/>
<path d="M0 0 C18.66157896 8.46504612 32.91823558 27.74795642 40.08203125 46.421875 C48.17823261 70.89212464 46.50462018 94.46954294 35.51953125 117.73046875 C24.43400797 139.5166013 5.85341217 154.12251066 -16.91796875 162.421875 C-40.78206274 169.64316112 -66.74799321 168.20049247 -88.91796875 156.421875 C-110.61116194 143.22165411 -125.78863451 125.00208837 -132.35546875 100.359375 C-137.93796104 76.94733684 -134.5264274 52.87519708 -122.51171875 31.94140625 C-119.92570833 27.85322802 -117.02838364 24.12128335 -113.91796875 20.421875 C-113.00917969 19.29458984 -113.00917969 19.29458984 -112.08203125 18.14453125 C-105.47981603 10.26229471 -96.27164985 1.56760557 -85.66796875 0.11328125 C-81.70049607 -0.10205855 -79.47667788 0.10091443 -75.98046875 2.109375 C-72.60099917 5.89847726 -71.93772536 8.19696491 -71.85546875 13.296875 C-72.72917959 18.53914003 -75.88476099 21.22091646 -79.91796875 24.421875 C-81.68495131 25.63583248 -83.45605885 26.84379992 -85.23046875 28.046875 C-97.84101451 36.99741367 -105.5760377 50.83435697 -108.4140625 65.8515625 C-111.04391237 84.48476234 -106.42971944 102.33541156 -95.32421875 117.37890625 C-85.11082678 130.29486784 -69.1204587 138.81402267 -52.91796875 141.421875 C-35.78241007 142.60163694 -19.9707424 139.00975453 -6.16796875 128.28515625 C-3.64705323 126.08319803 -1.27021453 123.80241239 1.08203125 121.421875 C2.14550781 120.39126953 2.14550781 120.39126953 3.23046875 119.33984375 C14.922497 107.26704063 19.60935152 91.56422629 19.43164062 75.06445312 C18.9096063 58.34524565 12.08317638 43.97928031 0.08203125 32.421875 C-3.57791433 28.99885946 -7.35527919 25.73485644 -11.19140625 22.51171875 C-11.90554688 21.90457031 -12.6196875 21.29742187 -13.35546875 20.671875 C-13.99355469 20.14078125 -14.63164063 19.6096875 -15.2890625 19.0625 C-18.05192552 16.27976027 -18.83935276 13.89357095 -19.48046875 10.046875 C-18.77029246 5.47018336 -17.19400804 4.31742787 -13.64453125 1.5859375 C-9.39663399 -1.27802943 -4.84954117 -1.46177616 0 0 Z " fill="#FDCB00" transform="translate(627.91796875,227.578125)"/>
<path d="M0 0 C6.12470634 5.49653133 6.47169306 13.26933634 7 21 C7.14737714 25.81403502 7.1638404 30.62533839 7.16796875 35.44140625 C7.17119118 36.8180291 7.17455595 38.19465163 7.17805481 39.5712738 C7.1840023 42.43969517 7.18589906 45.30808659 7.18530273 48.17651367 C7.18520091 51.82988864 7.1988935 55.48307017 7.21607494 59.13639927 C7.22725236 61.97361617 7.22922025 64.81078695 7.22869301 67.64802361 C7.23042627 69.64252543 7.24122087 71.63701287 7.25224304 73.63148499 C7.20691439 91.72904315 7.20691439 91.72904315 1 99 C-2.90602776 101.32250299 -6.52284036 101.3997464 -11 101 C-14.83473102 99.51839938 -15.81233863 98.35521616 -17.75 94.6875 C-19.64784244 89.0888648 -20.12654504 83.9448873 -20.14526367 78.05175781 C-20.14862228 77.38419464 -20.1519809 76.71663147 -20.15544128 76.02883911 C-20.16488611 73.8369151 -20.1668913 71.64506805 -20.16796875 69.453125 C-20.17118644 67.91623911 -20.1745509 66.37935352 -20.17805481 64.84246826 C-20.18403037 61.62478934 -20.18589639 58.4071372 -20.18530273 55.18945312 C-20.18520135 51.0899106 -20.19883649 46.99054217 -20.21607494 42.8910408 C-20.22725925 39.71664662 -20.22921996 36.54229363 -20.22869301 33.36788177 C-20.22986411 31.85778963 -20.23423634 30.34769611 -20.24202538 28.8376236 C-20.33990787 7.89679965 -20.33990787 7.89679965 -16.64958191 3.32818604 C-11.4150251 -1.25861255 -6.5055082 -1.70887444 0 0 Z " fill="#FDCA00" transform="translate(589,196)"/>
</svg>
